# xmcd
#
# Track frame offsets: 
#        150
#        16020
#        36473
#        53960
#        75096
#        96604
#        111272
#        126611
#        148407
#        167941
#        188439
#        208681
#
# Disc length: 3017 seconds
#
# Revision: 4
# Processed by: cddbd v1.5.2PL0 Copyright (c) Steve Scherf et al.
# Submitted via: ExactAudioCopy v0.99pb4
#
DISCID=ad0bc70c
DTITLE=Hall, Charlie - Flying Into Daybreak
DYEAR=2006
DGENRE=Christian
TTITLE0=Micah 6:8
TTITLE1=Marvelous Light
TTITLE2=All My Love
TTITLE3=Song Of The Redeemed
TTITLE4=Your Glory Endures Forever
TTITLE5=All We Need
TTITLE6=Bravery
TTITLE7=Closer
TTITLE8=Sum Of Beautiful
TTITLE9=Center
TTITLE10=Running With Your Heart
TTITLE11=Come For Me
EXTD=
EXTT0=
EXTT1=
EXTT2=
EXTT3=
EXTT4=
EXTT5=
EXTT6=
EXTT7=
EXTT8=
EXTT9=
EXTT10=
EXTT11=
PLAYORDER=
